<svg width="160" height="76" viewBox="0 0 160 76" fill="none" xmlns="http://www.w3.org/2000/svg">
<g clip-path="url(#clip0_92_196)">
<mask id="mask0_92_196" style="mask-type:alpha" maskUnits="userSpaceOnUse" x="5" y="7" width="151" height="62">
<path d="M132.316 60.6388C131.404 58.7507 130.517 56.9287 129.643 55.1C128.45 52.6046 127.257 50.1023 126.064 47.6069C125.284 45.98 124.488 44.3599 123.704 42.7347C123.52 42.353 123.314 42.0341 122.813 42.0816C122.191 42.1427 121.716 42.4209 121.459 42.9977C121.305 43.3889 121.237 43.8081 121.258 44.2276C121.258 50.4738 121.258 56.7201 121.271 62.9663C121.271 64.8324 120.646 66.4067 119.192 67.5637C117.681 68.7647 115.072 68.5425 113.781 67.3771C112.36 66.0929 111.896 64.5576 111.906 62.7424C111.917 46.3719 111.917 30.0013 111.906 13.6308C111.906 12.0497 112.208 10.5772 113.234 9.37277C114.101 8.35491 115.21 7.63223 116.625 7.63223C121.418 7.63223 126.223 7.43205 130.989 8.10554C132.522 8.32098 134.085 8.63143 135.496 9.29304C137.836 10.3837 139.806 12.1299 141.165 14.3179C142.398 16.243 143.235 18.3925 143.629 20.6421C144.348 24.7763 144.189 28.8563 142.552 32.775C141.878 34.3922 140.872 35.851 139.597 37.0568C138.651 37.9791 137.591 38.7771 136.441 39.4318C134.512 40.5056 133.872 42.3683 134.576 44.1971C134.64 44.3667 134.77 44.5533 134.576 44.7705C133.531 45.9054 133.093 47.3304 132.809 48.7859C132.275 51.5154 132.258 54.2552 133.025 56.9491C133.142 57.2937 133.183 57.6591 133.147 58.0209C133.111 58.3826 132.998 58.7327 132.815 59.0476C132.563 59.4988 132.492 60.0485 132.316 60.6388ZM121.271 24.7814C121.271 26.0232 121.271 27.265 121.271 28.5136C121.281 30.249 122.689 31.9879 124.377 31.9794C126.644 31.9675 128.913 32.0303 131.099 31.2211C132.282 30.7834 133.243 30.1472 133.931 29.0717C134.954 27.4686 135.099 25.7026 134.954 23.8942C134.725 21.0425 132.694 18.3774 129.578 17.9737C128.627 17.8481 127.673 17.7633 126.715 17.726C126.044 17.6988 125.371 17.726 124.701 17.6988C122.656 17.6089 121.36 19.19 121.28 21.0595C121.229 22.2979 121.271 23.5413 121.271 24.7814Z" fill="#DF9CFE"/>
<mask id="mask1_92_196" style="mask-type:luminance" maskUnits="userSpaceOnUse" x="133" y="45" width="23" height="24">
<path d="M155.911 45.8596H133.248V68.4221H155.911V45.8596Z" fill="white"/>
</mask>
<g mask="url(#mask1_92_196)">
<path d="M133.253 51.7553V51.3597C133.473 50.92 133.845 50.8265 134.308 50.8326C135.795 50.8508 137.282 50.837 138.769 50.8425C138.833 50.846 138.898 50.8347 138.957 50.8089C139.016 50.7833 139.068 50.7441 139.109 50.6947C139.647 50.1008 140.259 49.5786 140.931 49.141C140.971 49.1147 141.045 49.108 141.037 49.0234H138.298C137.974 49.0234 137.65 49.0322 137.326 49.0234C136.76 48.9998 136.416 48.4799 136.642 47.9908C136.799 47.6528 137.088 47.5611 137.439 47.5616C140.339 47.5655 143.239 47.5533 146.138 47.5665C149.313 47.5808 151.903 48.8393 153.852 51.3222C155.468 53.3825 156.1 55.7507 155.778 58.3495C155.456 60.9484 154.232 63.0539 152.194 64.6823C150.417 66.1029 148.364 66.7679 146.085 66.7646C142.133 66.758 138.181 66.758 134.229 66.7646C134.148 66.7646 134.067 66.7646 133.986 66.7558C133.82 66.7419 133.664 66.6707 133.546 66.5541C133.427 66.4376 133.354 66.2834 133.338 66.1183C133.305 65.7441 133.519 65.4329 133.871 65.3379C133.986 65.3113 134.104 65.3003 134.221 65.3049C136.422 65.3049 138.622 65.3049 140.823 65.3049C140.897 65.3049 140.976 65.3242 141.06 65.2764C140.601 64.987 140.169 64.6575 139.769 64.2921C139.722 64.2471 139.667 64.2124 139.606 64.1898C139.545 64.1674 139.48 64.1579 139.415 64.1618C138.37 64.1662 137.325 64.1662 136.28 64.1618C135.851 64.1591 135.547 63.8558 135.542 63.4517C135.538 63.0335 135.844 62.7137 136.276 62.7071C136.843 62.6978 137.41 62.7044 137.977 62.7044H138.317C136.142 59.3065 135.996 55.8485 137.878 52.2977C136.648 52.2977 135.433 52.2846 134.22 52.305C133.766 52.3126 133.436 52.1823 133.253 51.7553ZM146.224 51.2086C142.949 51.1855 140.23 53.8718 140.238 57.1718C140.242 58.7458 140.871 60.2543 141.988 61.3683C143.105 62.4825 144.618 63.1121 146.199 63.1199C149.434 63.1506 152.171 60.4726 152.199 57.2312C152.207 56.4446 152.058 55.6642 151.761 54.9351C151.465 54.206 151.026 53.5425 150.471 52.9827C149.916 52.423 149.255 51.9781 148.527 51.6736C147.798 51.369 147.016 51.2109 146.226 51.2086H146.224Z" fill="#DF9CFE"/>
<path d="M146.947 52.7236C148.373 52.9985 149.442 53.7437 150.164 54.9813C150.223 55.083 150.199 55.111 150.097 55.1434C149.545 55.3166 148.994 55.4946 148.444 55.677C148.359 55.7056 148.313 55.6946 148.26 55.6222C147.96 55.2203 147.545 54.9173 147.07 54.7527C146.993 54.7258 146.945 54.6978 146.945 54.6026C146.949 53.9832 146.947 53.3617 146.947 52.7236Z" fill="#DF9CFE"/>
<path d="M150.675 56.4894C150.901 57.8759 150.406 59.3833 149.423 60.3121C149.051 59.8027 148.682 59.2927 148.307 58.787C148.252 58.7124 148.289 58.6667 148.326 58.614C148.619 58.2023 148.754 57.7385 148.788 57.24C148.791 57.1812 148.764 57.1048 148.856 57.0751C149.462 56.8812 150.068 56.686 150.675 56.4894Z" fill="#DF9CFE"/>
<path d="M141.694 57.163C141.704 57.0234 141.722 56.8195 141.732 56.6136C141.737 56.5147 141.769 56.486 141.868 56.5184C142.424 56.7025 142.981 56.8867 143.539 57.0614C143.632 57.0906 143.649 57.1427 143.649 57.2197C143.662 57.7266 143.827 58.218 144.122 58.631C144.18 58.7124 144.146 58.7612 144.101 58.8233C143.763 59.2844 143.426 59.746 143.094 60.2088C143.017 60.316 142.978 60.2918 142.902 60.2088C142.21 59.471 141.793 58.5192 141.72 57.512C141.714 57.417 141.707 57.3225 141.694 57.163Z" fill="#DF9CFE"/>
<path d="M145.485 52.7386C145.485 53.3622 145.485 53.9844 145.485 54.607C145.489 54.6393 145.481 54.672 145.462 54.6985C145.443 54.7249 145.415 54.7434 145.383 54.7499C144.899 54.9137 144.477 55.2204 144.172 55.6293C144.13 55.6843 144.093 55.7139 144.007 55.6842C143.416 55.488 142.823 55.2995 142.229 55.1088C142.693 54.0453 144.009 52.9386 145.485 52.7386Z" fill="#DF9CFE"/>
<path d="M146.227 61.6542C145.574 61.6567 144.928 61.5181 144.334 61.248C144.224 61.1985 144.197 61.1644 144.279 61.054C144.618 60.6034 144.947 60.1455 145.277 59.6878C145.335 59.6071 145.387 59.5779 145.493 59.6103C145.967 59.7574 146.474 59.7574 146.948 59.6103C146.983 59.5935 147.025 59.5915 147.062 59.6044C147.099 59.6173 147.13 59.6442 147.148 59.6795C147.482 60.1423 147.818 60.6051 148.159 61.0633C148.231 61.159 148.224 61.1958 148.111 61.2458C147.52 61.5157 146.877 61.6552 146.227 61.6542Z" fill="#DF9CFE"/>
<path d="M145.118 57.1598C145.119 57.0153 145.148 56.8723 145.204 56.7391C145.26 56.6058 145.342 56.4848 145.445 56.383C145.548 56.2812 145.67 56.2006 145.804 56.1459C145.938 56.0911 146.082 56.0632 146.227 56.0639C146.52 56.0648 146.801 56.1815 147.007 56.3883C147.213 56.5949 147.329 56.8748 147.328 57.1664C147.327 57.4579 147.21 57.7371 147.002 57.9425C146.795 58.1481 146.513 58.2632 146.221 58.2621C146.076 58.262 145.932 58.2333 145.798 58.1778C145.664 58.1222 145.542 58.0409 145.44 57.9385C145.338 57.8362 145.256 57.7147 145.201 57.581C145.146 57.4474 145.118 57.3042 145.118 57.1598Z" fill="#DF9CFE"/>
</g>
<mask id="mask2_92_196" style="mask-type:luminance" maskUnits="userSpaceOnUse" x="43" y="0" width="78" height="76">
<path d="M120.298 0H43.9617V76H120.298V0Z" fill="white"/>
</mask>
<g mask="url(#mask2_92_196)">
<path d="M109.279 66.5039C104.694 66.9779 100.422 66.7843 96.6145 64.1167C94.4329 62.5843 93.2846 60.3313 92.3149 57.9576C90.3733 53.2068 88.9672 48.2819 87.5848 43.3571C87.4222 42.7766 87.2794 42.5673 86.6229 42.8063C83.5509 43.9536 80.4869 45.1108 77.6389 46.7951C80.1914 46.025 82.6982 45.0475 85.4429 45.2154C83.7295 45.9559 82.0477 46.7515 80.3817 47.585C75.2789 50.1301 71.0487 53.7656 67.1873 57.8925C65.2736 59.9441 63.5124 62.0767 62.1242 64.5194C61.7955 65.134 61.3232 65.6609 60.7471 66.0559C60.171 66.4508 59.5081 66.7019 58.8141 66.7882C56.2498 67.126 54.1794 64.7742 54.7664 62.1894C55.3376 59.6815 56.3529 57.3259 57.3743 54.978C62.9373 42.131 69.119 29.594 76.2626 17.5368C77.0916 16.1368 78.0039 14.7861 78.9697 13.473C80.1359 11.8933 81.6668 10.7322 83.3645 9.78436C84.721 9.03004 85.8435 9.32031 86.6785 10.6236C87.4461 11.8222 87.7911 13.1906 88.1679 14.5452C89.8933 20.7337 91.2519 27.019 93.0785 33.1838C93.4632 34.4813 93.8856 35.7687 94.2426 37.0719C94.3714 37.542 94.5638 37.688 95.0557 37.6426C97.3998 37.4254 99.748 37.2042 102.104 37.4787C102.868 37.5694 103.627 37.6762 104.286 38.0967C104.484 38.2231 104.744 38.3851 104.647 38.6753C104.567 38.9103 104.304 38.7938 104.123 38.8155C101.321 39.171 98.5403 39.635 95.7934 40.259C95.4504 40.336 95.3234 40.4032 95.4524 40.7665C98.0305 48.1121 100.769 55.3926 105.083 61.9583C106.19 63.6505 107.429 65.2441 109.279 66.5039ZM73.8788 42.2869C77.849 40.9684 81.8938 39.8846 85.9923 39.0406C86.389 38.9597 86.3433 38.7997 86.2641 38.4838C85.4285 35.1665 84.6053 31.8457 83.7949 28.5217C83.3863 26.8512 83.0015 25.1787 82.5554 23.3442C79.5011 29.6571 76.7068 35.891 73.8788 42.2869Z" fill="#DF9CFE"/>
</g>
<mask id="mask3_92_196" style="mask-type:luminance" maskUnits="userSpaceOnUse" x="-1" y="7" width="62" height="62">
<path d="M60.6603 7.71875H-0.17041V68.2812H60.6603V7.71875Z" fill="white"/>
</mask>
<g mask="url(#mask3_92_196)">
<path d="M6.56698 68.1617C5.97273 67.9603 5.82101 67.5167 5.91901 66.9533C6.63969 62.7933 7.36247 58.6343 8.08736 54.4764C9.05458 48.8862 10.0739 43.3054 10.9622 37.6996C11.4236 34.7871 12.4651 32.2272 14.4296 29.99C17.1273 26.9093 19.7194 23.7358 22.3317 20.5811C25.2666 17.0362 28.9885 14.876 33.5528 14.1586C35.6453 13.8298 37.7266 14.0422 39.8097 14.2703C41.8927 14.4984 43.9283 14.7423 45.9907 14.9264C48.4073 15.1498 50.0541 16.8145 50.1758 19.2327C50.3022 21.7611 49.079 23.6194 46.9042 24.1951C46.4246 24.3119 45.9313 24.3648 45.4376 24.3526C42.9485 24.3526 40.4608 24.3526 37.9716 24.3526C34.9531 24.3398 32.7184 25.6522 31.2406 28.2593C29.8546 30.7026 28.554 33.1901 27.0761 35.5802C23.7194 41.0351 27.4033 47.4167 32.9633 48.7966C34.6323 49.2119 36.2822 49.0231 37.9512 48.754C39.9946 48.4237 42.0159 47.9107 44.091 47.8478C46.3262 47.7719 48.5259 48.4195 50.3603 49.6931C52.1946 50.9667 53.5649 52.7979 54.2659 54.9122C54.9296 56.9247 53.8629 58.7592 51.7783 59.1792C49.422 59.6512 47.0591 60.0917 44.709 60.5952C42.7244 61.0046 40.8954 61.9609 39.4304 63.355C37.1846 65.4854 34.6718 67.1579 31.7037 68.1097C31.6279 68.1281 31.5507 68.1406 31.473 68.1476C30.7665 68.2215 30.0505 68.0044 29.3489 68.2687H8.375C7.78549 68.02 7.16912 68.2025 6.56698 68.1617Z" fill="#DF9CFE"/>
<path d="M29.3551 68.2687C30.0505 68.0044 30.7776 68.2215 31.4792 68.1476C31.4683 68.1744 31.4605 68.2024 31.4555 68.2309C31.4555 68.2419 31.4777 68.2561 31.4888 68.2687H29.3551Z" fill="#DF9CFE"/>
<path d="M6.56702 68.1617C7.16916 68.2025 7.78552 68.02 8.37503 68.2687H6.59704C6.59263 68.2317 6.58251 68.1956 6.56702 68.1617Z" fill="#DF9CFE"/>
<path d="M32.6346 7.83991C34.863 7.96263 37.074 8.26471 39.2913 8.49129C40.8813 8.64861 42.4711 8.82642 44.0562 9.02308C45.6794 9.22448 46.8616 10.0867 47.655 11.5012C47.862 11.8725 47.9378 12.2406 47.6723 12.6025C47.4069 12.9644 47.0543 13.0163 46.6246 12.9691C43.5633 12.634 40.5083 12.206 37.4375 12.0251C31.0114 11.638 25.6222 13.8943 21.3172 18.6648C21.1926 18.8173 21.0573 18.9608 20.9125 19.0943C20.7716 19.2217 20.5903 19.296 20.4001 19.3043C20.2098 19.3128 20.0227 19.2546 19.871 19.14C19.5328 18.9148 19.3638 18.5956 19.4839 18.1771C21.2872 11.8662 25.9762 8.59041 30.9877 7.95004C31.5336 7.87755 32.0838 7.84076 32.6346 7.83991Z" fill="#DF9CFE"/>
<path d="M16.4125 12.2738L18.1319 14.6103L20.8951 13.7043L19.1946 16.0543L20.9141 18.3908L18.1436 17.5068L16.4429 19.8567L16.4313 16.9603L13.6609 16.0763L16.4241 15.1703L16.4125 12.2738Z" fill="#D9D9D9"/>
</g>
</mask>
<g mask="url(#mask0_92_196)">
<path d="M159.089 0H4.99988V74.3036H159.089V0Z" fill="#DF9CFE"/>
<g filter="url(#filter0_f_92_196)">
<ellipse cx="138.868" cy="67" rx="9.0566" ry="9" fill="#9CEFFE"/>
</g>
<g filter="url(#filter1_f_92_196)">
<ellipse cx="153.962" cy="50" rx="9.0566" ry="9" fill="#9CEFFE"/>
</g>
<g filter="url(#filter2_f_92_196)">
<ellipse cx="116.226" cy="60.5" rx="6.54088" ry="15.5" fill="#9CEFFE"/>
<path d="M116.226 45.5C116.958 45.5 117.698 45.8492 118.419 46.5713C119.141 47.2954 119.814 48.3686 120.391 49.7344C121.542 52.4642 122.267 56.27 122.267 60.5C122.267 64.73 121.542 68.5358 120.391 71.2656C119.814 72.6314 119.141 73.7046 118.419 74.4287C117.698 75.1508 116.958 75.5 116.226 75.5C115.495 75.5 114.755 75.1509 114.034 74.4287C113.312 73.7046 112.638 72.6314 112.061 71.2656C110.91 68.5358 110.185 64.7298 110.185 60.5C110.185 56.2702 110.91 52.4642 112.061 49.7344C112.638 48.3686 113.312 47.2954 114.034 46.5713C114.755 45.8491 115.495 45.5 116.226 45.5Z" stroke="#3B8D9C"/>
</g>
<g filter="url(#filter3_df_92_196)">
<path d="M113 37.5C108.5 39 110 8 110 8L115 -0.499996L138 6C138 6 146.933 31.4485 139.5 27.5C133.768 24.455 136.5 12 133.5 12C130.5 12 133.254 39.0139 124 35.5C115.418 32.2415 132.274 7.29436 123.5 12C117.78 15.0677 121 27.5 117.5 27.5C114 27.5 118.797 16.741 116.5 10.5C112.827 0.522114 117.5 36 113 37.5Z" fill="#9CEFFE"/>
</g>
<g filter="url(#filter4_f_92_196)">
<path d="M74.4999 41.5C66.0999 44.7 56.3332 58.1667 52.4999 64.5L49.9999 71.5L65.9999 70L84.4999 51L85.9999 45C85.1665 44.8333 83.9999 44.2 85.9999 43C87.9999 41.8 92.8332 40.8333 94.9999 40.5L96.4999 41L106 39.5L105 37H94.4999C92.8999 37 87.8332 38 85.4999 38.5C85.3332 38.1667 82.8999 38.3 74.4999 41.5Z" fill="#9CEFFE"/>
</g>
<g filter="url(#filter5_df_92_196)">
<path d="M12.4999 49.5C8.99241 58.9502 8.49988 24 8.49988 24L19.4999 6H49.9999V14.5C49.9999 14.5 48.1255 21.6978 44.9999 21C42.6737 20.4807 43.8606 16.3286 41.4999 16C38.5478 15.589 40.4246 21.9261 37.4999 22.5C34.11 23.1652 34.9393 15.6773 31.4999 16C27.3439 16.3899 33.4982 27.6988 29.4999 26.5C26.5723 25.6222 29.0539 19.3814 25.9999 19.5C22.782 19.625 27.21 27.7568 23.9999 27.5C22.3255 27.3661 21.991 25.7732 20.4999 25C18.2152 23.8154 17.9878 25.3431 18.7263 28.1311C19.0836 28.1772 19.2582 28.9582 19.3635 30.2008C22.1957 38.5068 29.6269 52.7718 23.9999 49.5C19.1418 46.6753 19.7697 34.9981 19.3635 30.2008C19.11 29.4576 18.8934 28.7621 18.7263 28.1311C18.4471 28.0951 18.0563 28.5079 17.4999 29.5C14.8254 34.2685 22.3548 46.0142 17.4999 43.5C14.0845 41.7313 16.8293 36.4258 13.4999 34.5C8.41792 31.5605 14.5427 43.996 12.4999 49.5Z" fill="#9CEFFE"/>
</g>
<g filter="url(#filter6_df_92_196)">
<path d="M73.4999 35L70.4999 19L79.9999 3.5L89.9999 5.5L86.4999 29.5C86.4999 29.5 87.4999 12 84.4999 12C81.4999 12 81.9999 21 81.9999 21C81.9999 21 80.9999 15.5 78.4999 17C75.9999 18.5 78.4999 28 78.4999 28C78.4999 28 76.4999 23 74.4999 24C72.4999 25 73.4999 35 73.4999 35Z" fill="#9CEFFE"/>
</g>
</g>
</g>
<defs>
<filter id="filter0_f_92_196" x="124.811" y="53" width="28.1132" height="28" filterUnits="userSpaceOnUse" color-interpolation-filters="sRGB">
<feFlood flood-opacity="0" result="BackgroundImageFix"/>
<feBlend mode="normal" in="SourceGraphic" in2="BackgroundImageFix" result="shape"/>
<feGaussianBlur stdDeviation="2.5" result="effect1_foregroundBlur_92_196"/>
</filter>
<filter id="filter1_f_92_196" x="139.906" y="36" width="28.1132" height="28" filterUnits="userSpaceOnUse" color-interpolation-filters="sRGB">
<feFlood flood-opacity="0" result="BackgroundImageFix"/>
<feBlend mode="normal" in="SourceGraphic" in2="BackgroundImageFix" result="shape"/>
<feGaussianBlur stdDeviation="2.5" result="effect1_foregroundBlur_92_196"/>
</filter>
<filter id="filter2_f_92_196" x="104.685" y="40" width="23.0818" height="41" filterUnits="userSpaceOnUse" color-interpolation-filters="sRGB">
<feFlood flood-opacity="0" result="BackgroundImageFix"/>
<feBlend mode="normal" in="SourceGraphic" in2="BackgroundImageFix" result="shape"/>
<feGaussianBlur stdDeviation="2.5" result="effect1_foregroundBlur_92_196"/>
</filter>
<filter id="filter3_df_92_196" x="108.76" y="-1.5" width="34.6949" height="41.0527" filterUnits="userSpaceOnUse" color-interpolation-filters="sRGB">
<feFlood flood-opacity="0" result="BackgroundImageFix"/>
<feColorMatrix in="SourceAlpha" type="matrix" values="0 0 0 0 0 0 0 0 0 0 0 0 0 0 0 0 0 0 127 0" result="hardAlpha"/>
<feOffset dy="1"/>
<feGaussianBlur stdDeviation="0.5"/>
<feComposite in2="hardAlpha" operator="out"/>
<feColorMatrix type="matrix" values="0 0 0 0 0 0 0 0 0 0 0 0 0 0 0 0 0 0 0.25 0"/>
<feBlend mode="normal" in2="BackgroundImageFix" result="effect1_dropShadow_92_196"/>
<feBlend mode="normal" in="SourceGraphic" in2="effect1_dropShadow_92_196" result="shape"/>
<feGaussianBlur stdDeviation="0.5" result="effect2_foregroundBlur_92_196"/>
</filter>
<filter id="filter4_f_92_196" x="48.9999" y="36" width="58" height="36.5" filterUnits="userSpaceOnUse" color-interpolation-filters="sRGB">
<feFlood flood-opacity="0" result="BackgroundImageFix"/>
<feBlend mode="normal" in="SourceGraphic" in2="BackgroundImageFix" result="shape"/>
<feGaussianBlur stdDeviation="0.5" result="effect1_foregroundBlur_92_196"/>
</filter>
<filter id="filter5_df_92_196" x="7.49988" y="5" width="44.5" height="49.1212" filterUnits="userSpaceOnUse" color-interpolation-filters="sRGB">
<feFlood flood-opacity="0" result="BackgroundImageFix"/>
<feColorMatrix in="SourceAlpha" type="matrix" values="0 0 0 0 0 0 0 0 0 0 0 0 0 0 0 0 0 0 127 0" result="hardAlpha"/>
<feOffset dx="1" dy="2"/>
<feGaussianBlur stdDeviation="0.5"/>
<feComposite in2="hardAlpha" operator="out"/>
<feColorMatrix type="matrix" values="0 0 0 0 0.307138 0 0 0 0 0.663138 0 0 0 0 0.725962 0 0 0 1 0"/>
<feBlend mode="normal" in2="BackgroundImageFix" result="effect1_dropShadow_92_196"/>
<feBlend mode="normal" in="SourceGraphic" in2="effect1_dropShadow_92_196" result="shape"/>
<feGaussianBlur stdDeviation="0.5" result="effect2_foregroundBlur_92_196"/>
</filter>
<filter id="filter6_df_92_196" x="69.4999" y="2.5" width="21.5" height="34.5" filterUnits="userSpaceOnUse" color-interpolation-filters="sRGB">
<feFlood flood-opacity="0" result="BackgroundImageFix"/>
<feColorMatrix in="SourceAlpha" type="matrix" values="0 0 0 0 0 0 0 0 0 0 0 0 0 0 0 0 0 0 127 0" result="hardAlpha"/>
<feOffset dy="1"/>
<feGaussianBlur stdDeviation="0.5"/>
<feComposite in2="hardAlpha" operator="out"/>
<feColorMatrix type="matrix" values="0 0 0 0 0 0 0 0 0 0 0 0 0 0 0 0 0 0 0.25 0"/>
<feBlend mode="normal" in2="BackgroundImageFix" result="effect1_dropShadow_92_196"/>
<feBlend mode="normal" in="SourceGraphic" in2="effect1_dropShadow_92_196" result="shape"/>
<feGaussianBlur stdDeviation="0.5" result="effect2_foregroundBlur_92_196"/>
</filter>
<clipPath id="clip0_92_196">
<rect width="160" height="76" fill="white"/>
</clipPath>
</defs>
</svg>
