<svg id="Layer_1" data-name="Layer 1" xmlns="http://www.w3.org/2000/svg" viewBox="0 0 48.11 48.11"><title>Daftar_Car</title><path d="M298.08,445.05H274.41c-.31,0-.39,0-.39-.37q0-23.67,0-47.34c0-.35.1-.4.42-.4h47.28c.33,0,.42.06.42.41q0,23.64,0,47.28c0,.37-.1.42-.43.42Zm-20.66-13.73a1.53,1.53,0,0,0-.24.14,4.58,4.58,0,0,0-1.56,3.57c0,1.51,0,3,0,4.54a3.91,3.91,0,0,0,7.51,1.49.47.47,0,0,1,.5-.35c3.16,0,6.31,0,9.47,0a.43.43,0,0,1,.48.31,3.91,3.91,0,0,0,7.53-1.54c0-1.48,0-3,0-4.45a4.61,4.61,0,0,0-1.53-3.54c-.22-.2-.22-.26,0-.46a1.47,1.47,0,0,0-1.19-2.59c-.31.06-.4-.06-.48-.32-.24-.75-.5-1.5-.76-2.25a3.89,3.89,0,0,0-3.74-2.67H283.28a3.85,3.85,0,0,0-3.71,2.64c-.27.75-.53,1.5-.76,2.26-.09.29-.18.41-.54.34a1.44,1.44,0,0,0-1.75,1.36A1.62,1.62,0,0,0,277.42,431.32Zm22.19-32.87h0c-3.58,0-7.15,0-10.73,0a10.42,10.42,0,0,0-10.22,9.92c-.12,3.95,0,7.9,0,11.86a1.39,1.39,0,0,0,1,1.36,1.49,1.49,0,0,0,2-1.5c0-3.67,0-7.34,0-11a7.49,7.49,0,0,1,7.61-7.63H310a7.48,7.48,0,0,1,7.62,7.63q0,10.38,0,20.76a7.48,7.48,0,0,1-7.58,7.61h-5a1.51,1.51,0,1,0,0,3h5.06a10,10,0,0,0,1.64-.13,10.48,10.48,0,0,0,8.89-10.46c0-6.94,0-13.88,0-20.81a10.82,10.82,0,0,0-.23-2.28A10.49,10.49,0,0,0,310,398.45Zm5.31,10.5h-5.85a2.59,2.59,0,0,0-.56.05,1.5,1.5,0,0,0,.42,2.95h11.89a1.4,1.4,0,0,0,.41-.05,1.49,1.49,0,0,0-.36-2.94Zm0,7.5h-5.85a2.59,2.59,0,0,0-.56.05,1.5,1.5,0,0,0,.42,2.95h11.89a1.4,1.4,0,0,0,.41-.05,1.49,1.49,0,0,0-.36-2.94Zm-17.31-7.6a1.45,1.45,0,0,0-1.36.9,1.41,1.41,0,0,0,.31,1.64c.51.53,1.06,1,1.59,1.52a1.51,1.51,0,0,0,2.37-.06c1.12-1.17,2.24-2.34,3.36-3.53a1.5,1.5,0,1,0-2.18-2.06c-.71.74-1.44,1.48-2.12,2.25-.28.31-.43.27-.67,0A1.63,1.63,0,0,0,287.61,408.85Zm.27,8.24a1.57,1.57,0,0,0-1.62.9,1.39,1.39,0,0,0,.29,1.64c.51.53,1.06,1,1.59,1.52a1.5,1.5,0,0,0,2.37,0q1.67-1.74,3.32-3.49a1.5,1.5,0,1,0-2.15-2.08c-.72.74-1.44,1.48-2.13,2.24-.23.26-.37.28-.6,0S288.2,417.08,287.88,417.09Z" transform="translate(-274.02 -396.94)" fill="none"/><path d="M277.42,431.32a1.62,1.62,0,0,1-.9-1.51,1.44,1.44,0,0,1,1.75-1.36c.36.07.45-.05.54-.34.23-.76.49-1.51.76-2.26a3.85,3.85,0,0,1,3.71-2.64h10.17a3.89,3.89,0,0,1,3.74,2.67c.26.75.52,1.5.76,2.25.08.26.17.38.48.32a1.47,1.47,0,0,1,1.19,2.59c-.24.2-.24.26,0,.46a4.61,4.61,0,0,1,1.53,3.54c0,1.48,0,3,0,4.45a3.91,3.91,0,0,1-7.53,1.54.43.43,0,0,0-.48-.31c-3.16,0-6.31,0-9.47,0a.47.47,0,0,0-.5.35,3.91,3.91,0,0,1-7.51-1.49c0-1.51,0-3,0-4.54a4.58,4.58,0,0,1,1.56-3.57A1.53,1.53,0,0,1,277.42,431.32Zm3.83-1.1H295.5c-.39-1.15-.76-2.27-1.15-3.38a.89.89,0,0,0-.89-.64H283.29a.88.88,0,0,0-.89.63C282,428,281.64,429.07,281.25,430.22ZM294,437.17h.84a1.49,1.49,0,0,0,.07-3,17.61,17.61,0,0,0-1.78,0,1.5,1.5,0,0,0,.07,3Zm-11.65,0h.84a1.49,1.49,0,0,0,.11-3,14.59,14.59,0,0,0-1.87,0,1.49,1.49,0,0,0,.12,3Z" transform="translate(-274.02 -396.94)" fill="currentColor"/><path d="M299.61,398.45H310a10.49,10.49,0,0,1,10.38,8.33,10.82,10.82,0,0,1,.23,2.28c0,6.93,0,13.87,0,20.81a10.48,10.48,0,0,1-8.89,10.46,10,10,0,0,1-1.64.13H305a1.51,1.51,0,1,1,0-3h5a7.48,7.48,0,0,0,7.58-7.61q0-10.38,0-20.76a7.48,7.48,0,0,0-7.62-7.63H289.24a7.49,7.49,0,0,0-7.61,7.63c0,3.68,0,7.35,0,11a1.49,1.49,0,0,1-2,1.5,1.39,1.39,0,0,1-1-1.36c0-4-.09-7.91,0-11.86a10.42,10.42,0,0,1,10.22-9.92c3.58,0,7.15,0,10.73,0Z" transform="translate(-274.02 -396.94)" fill="currentColor"/><path d="M304.92,409h5.95a1.49,1.49,0,0,1,.36,2.94,1.4,1.4,0,0,1-.41.05H298.93a1.5,1.5,0,0,1-.42-2.95,2.59,2.59,0,0,1,.56-.05Z" transform="translate(-274.02 -396.94)" fill="currentColor"/><path d="M304.92,416.45h5.95a1.49,1.49,0,0,1,.36,2.94,1.4,1.4,0,0,1-.41.05H298.93a1.5,1.5,0,0,1-.42-2.95,2.59,2.59,0,0,1,.56-.05Z" transform="translate(-274.02 -396.94)" fill="currentColor"/><path d="M287.61,408.85a1.63,1.63,0,0,1,1.3.65c.24.28.39.32.67,0,.68-.77,1.41-1.51,2.12-2.25a1.5,1.5,0,1,1,2.18,2.06c-1.12,1.19-2.24,2.36-3.36,3.53a1.51,1.51,0,0,1-2.37.06c-.53-.5-1.08-1-1.59-1.52a1.41,1.41,0,0,1-.31-1.64A1.45,1.45,0,0,1,287.61,408.85Z" transform="translate(-274.02 -396.94)" fill="currentColor"/><path d="M287.88,417.09c.32,0,.72.32,1.07.71s.37.24.6,0c.69-.76,1.41-1.5,2.13-2.24a1.5,1.5,0,1,1,2.15,2.08q-1.65,1.75-3.32,3.49a1.5,1.5,0,0,1-2.37,0c-.53-.5-1.08-1-1.59-1.52a1.39,1.39,0,0,1-.29-1.64A1.57,1.57,0,0,1,287.88,417.09Z" transform="translate(-274.02 -396.94)" fill="currentColor"/><path d="M281.25,430.22c.39-1.15.76-2.27,1.15-3.38a.88.88,0,0,1,.89-.63h10.17a.89.89,0,0,1,.89.64c.39,1.11.76,2.23,1.15,3.38Z" transform="translate(-274.02 -396.94)" fill="none"/><path d="M294,437.17h-.8a1.5,1.5,0,0,1-.07-3,17.61,17.61,0,0,1,1.78,0,1.49,1.49,0,0,1-.07,3Z" transform="translate(-274.02 -396.94)" fill="none"/><path d="M282.34,437.17h-.8a1.49,1.49,0,0,1-.12-3,14.59,14.59,0,0,1,1.87,0,1.49,1.49,0,0,1-.11,3Z" transform="translate(-274.02 -396.94)" fill="none"/></svg>