<svg width="385" height="385" viewBox="0 0 385 385" fill="none" xmlns="http://www.w3.org/2000/svg">
<g clip-path="url(#clip0_179_8)">
<path d="M301.68 243.99C319.819 244.074 337.836 241.029 354.94 234.99C360.09 233.18 364.85 233.65 368.72 237.76C372.45 241.71 372.86 246.31 370.88 251.31C345.14 316.42 298.14 356.76 229.34 369.75C150.94 384.55 72.34 346.11 34.39 275.88C15.82 241.51 8.15004 204.69 13.57 165.93C23.87 92.5 64.17 42.1 132.8 14.23C137.98 12.12 142.8 12.07 147.06 16.07C151.32 20.07 151.48 25.07 149.65 30.53C126.65 98.98 149.92 171.82 208.49 214C236.24 234.02 267.5 243.71 301.68 243.99Z" fill="currentColor"/>
</g>
<defs>
<clipPath id="clip0_179_8">
<rect width="384.89" height="384.89" fill="white"/>
</clipPath>
</defs>
</svg>
