<svg id="Layer_1" data-name="Layer 1" xmlns="http://www.w3.org/2000/svg" viewBox="0 0 384.89 384.9"><path d="M106.5,427.89V415.14c.59-.1.73-.55.85-1.05,1.83-7.95,6.36-14.16,12.05-19.84q76.32-76.14,152.5-152.42c16-16,37.1-16.06,53.1-.11q19.13,19,38.19,38.16c.89.89,1.64,2,3.29,2.51,0-13.6,0-26.82,0-40,0-8.08,4.49-12.45,12.58-12.46q22.13,0,44.25,0c9.75,0,13.86,4.12,13.86,13.88q0,53.44,0,106.87a7,7,0,0,0,2.26,5.53c13.41,13.28,26.7,26.68,40.08,40,6.65,6.62,10.51,14.54,10.94,23.92,1,21.43-15.94,38-37.81,37-2.84-.12-3.54.43-3.47,3.27.21,8.12.08,16.25.08,24.37,0,29,.06,58,0,87-.06,18.94-11.54,34.72-29,40.21-2.29.72-4.63,1.3-6.94,1.94h-81c-6.64-2.44-9-7.27-9-14.22.19-26.08,0-52.18.17-78.26,0-3.44-1-4.06-4.15-4q-20.77.27-41.56,0c-3.15,0-4.19.53-4.16,4,.17,26.08,0,52.17.16,78.26,0,6.93-2.3,11.8-9,14.23h-82.5c-.13-.59-.58-.69-1.09-.78-17.69-3.29-33.89-19.54-33.53-44,.54-36.24.11-72.49.21-108.74,0-2.8-.56-3.43-3.44-3.29-18.09.86-32.19-9.55-36.95-27C107.23,429.38,107.58,428.32,106.5,427.89Zm63.78,81.78q0,30.94,0,61.87c0,11.76,8,19.81,19.73,19.84,19.25,0,38.5-.06,57.75.08,2.87,0,3.46-.77,3.44-3.52-.11-26.62-.07-53.24-.06-79.87,0-8.82,4.25-13.09,13.1-13.1q34.13,0,68.25,0c9.12,0,13.33,4.2,13.34,13.23,0,26.25.07,52.5-.08,78.75,0,3.44.54,4.59,4.33,4.55,18.5-.24,37-.11,55.5-.11,13.46,0,21.12-7.65,21.12-21.1q0-61.5.06-123a7.91,7.91,0,0,0-2.57-6.19q-61.59-61.44-123-123c-2.28-2.29-3.33-2-5.46.12q-61.41,61.6-123,123a7.92,7.92,0,0,0-2.48,6.23C170.32,468.17,170.28,488.92,170.28,509.67ZM468,423c0-6-2.72-9.3-5.89-12.47q-76.24-76.17-152.43-152.39c-7.8-7.8-14.48-7.81-22.22-.08L134.76,410.75a38.17,38.17,0,0,0-2.83,3,12.84,12.84,0,0,0,6.35,20.52c5.6,1.59,10.1-.46,14.15-4.52q67.92-68.06,136-136c7.33-7.34,12.87-7.36,20.14-.1L443.7,428.83a36.5,36.5,0,0,0,3.24,3.11,12.44,12.44,0,0,0,13.72,1.55A12.15,12.15,0,0,0,468,423Zm-53.28-91.49c0-26.33,0-51.53,0-76.73,0-2.06-.69-2.47-2.56-2.44-6.86.1-13.73.13-20.59,0-2.17-.05-2.66.63-2.65,2.72.09,16.09.05,32.19,0,48.28a4.27,4.27,0,0,0,1,3.43C398,314.75,406,322.79,414.69,331.52Z" transform="translate(-106.43 -229.06)" fill="currentColor"/><path d="M413.25,613.89c2.31-.64,4.65-1.22,6.94-1.94,17.47-5.49,28.95-21.27,29-40.21.08-29,0-58,0-87,0-8.12.13-16.25-.08-24.37-.07-2.84.63-3.39,3.47-3.27,21.87,1,38.78-15.59,37.81-37-.43-9.38-4.29-17.3-10.94-23.92-13.38-13.32-26.67-26.72-40.08-40a7,7,0,0,1-2.26-5.53q.11-53.43,0-106.87c0-9.76-4.11-13.88-13.86-13.88q-22.12,0-44.25,0c-8.09,0-12.54,4.38-12.58,12.46-.05,13.22,0,26.44,0,40-1.65-.47-2.4-1.62-3.29-2.51Q344.08,260.82,325,241.72c-16-15.95-37.09-15.9-53.1.11Q195.66,318,119.4,394.25c-5.69,5.68-10.22,11.89-12.05,19.84-.12.5-.26,1-.85,1.05q0-91.47-.06-182.93c0-2.43.29-3.15,3-3.15q189.49.13,379,0c2.29,0,2.89.45,2.89,2.84q-.1,189.69,0,379.36c0,2.32-.57,2.66-2.72,2.66C463.48,613.86,438.37,613.89,413.25,613.89Z" transform="translate(-106.43 -229.06)" fill="none"/><path d="M106.5,427.89c1.08.43.73,1.49,1,2.26,4.76,17.41,18.86,27.82,37,27,2.88-.14,3.45.49,3.44,3.29-.1,36.25.33,72.5-.21,108.74-.36,24.43,15.84,40.68,33.53,44,.51.09,1,.19,1.09.78-24.25,0-48.5,0-72.75.07-2.57,0-3.08-.5-3.07-3.07Q106.57,519.39,106.5,427.89Z" transform="translate(-106.43 -229.06)" fill="none"/><path d="M264.75,613.89c6.67-2.43,9-7.3,9-14.23-.18-26.09,0-52.18-.16-78.26,0-3.47,1-4,4.16-4q20.77.26,41.56,0c3.18,0,4.17.58,4.15,4-.17,26.08,0,52.18-.17,78.26-.05,7,2.35,11.78,9,14.22Z" transform="translate(-106.43 -229.06)" fill="none"/><path d="M170.28,509.67c0-20.75,0-41.5-.06-62.24a7.92,7.92,0,0,1,2.48-6.23q61.61-61.44,123-123c2.13-2.14,3.18-2.41,5.46-.12q61.4,61.63,123,123.05a7.91,7.91,0,0,1,2.57,6.19q-.12,61.5-.06,123c0,13.45-7.66,21.09-21.12,21.1-18.5,0-37-.13-55.5.11-3.79,0-4.35-1.11-4.33-4.55.15-26.25.09-52.5.08-78.75,0-9-4.22-13.22-13.34-13.23q-34.12,0-68.25,0c-8.85,0-13.09,4.28-13.1,13.1,0,26.63-.05,53.25.06,79.87,0,2.75-.57,3.54-3.44,3.52-19.25-.14-38.5,0-57.75-.08-11.7,0-19.71-8.08-19.73-19.84Q170.23,540.61,170.28,509.67Z" transform="translate(-106.43 -229.06)" fill="none"/><path d="M468,423a12.15,12.15,0,0,1-7.31,10.48,12.44,12.44,0,0,1-13.72-1.55,36.5,36.5,0,0,1-3.24-3.11L308.52,293.65c-7.27-7.26-12.81-7.24-20.14.1q-68,68-135.95,136c-4.05,4.06-8.55,6.11-14.15,4.52a12.84,12.84,0,0,1-6.35-20.52,38.17,38.17,0,0,1,2.83-3L287.43,258.07c7.74-7.73,14.42-7.72,22.22.08q76.22,76.2,152.43,152.39C465.25,413.71,468,417,468,423Z" transform="translate(-106.43 -229.06)" fill="none"/><path d="M414.69,331.52C406,322.79,398,314.75,390,306.77a4.27,4.27,0,0,1-1-3.43c0-16.09,0-32.19,0-48.28,0-2.09.48-2.77,2.65-2.72,6.86.14,13.73.11,20.59,0,1.87,0,2.57.38,2.56,2.44C414.66,280,414.69,305.19,414.69,331.52Z" transform="translate(-106.43 -229.06)" fill="none"/></svg>
