<svg width="411" height="383" viewBox="0 0 411 383" fill="none" xmlns="http://www.w3.org/2000/svg">
<g clip-path="url(#clip0_217_2)">
<path d="M0.0799561 309.7V29.7C1.35996 29.3 1.28996 28.06 1.58996 27.13C6.89996 10.95 19.14 1.12999 35.88 1.00999C77.2133 0.729988 118.547 0.729988 159.88 1.00999C177.51 1.11999 191.11 12.59 194.73 29.86C196.34 37.52 196.95 45.4 197.93 53.19C201.59 82.2633 205.227 111.333 208.84 140.4C212.453 169.467 216.03 198.547 219.57 227.64C223.617 260.307 227.68 292.947 231.76 325.56C232.48 331.37 227.17 338.56 222.27 338.56C160.683 338.56 99.0933 338.56 37.5 338.56C19.87 338.56 7.09995 329.07 1.60995 312.35C1.28995 311.34 1.35996 310.1 0.0799561 309.7ZM108.59 182.5C113.25 182.5 117.92 182.66 122.59 182.44C125 182.32 125.67 183.18 126.09 185.44C128.277 197.067 130.573 208.673 132.98 220.26C134.46 227.41 140.87 231.77 147.35 230.26C154.1 228.71 157.94 222.48 156.51 215.32C148.683 176.207 140.843 137.1 132.99 98C131.39 90.05 127.17 86.57 119.17 86.52C112.11 86.4733 105.05 86.4733 97.99 86.52C89.9 86.52 85.61 90 83.99 97.85C76.2033 136.69 68.4366 175.54 60.69 214.4C59.06 222.56 62.69 228.84 69.83 230.32C76.66 231.75 82.51 227.21 84.12 219.24C86.4 207.9 88.75 196.58 90.92 185.24C91.32 183.17 91.97 182.4 94.17 182.48C98.99 182.63 103.79 182.5 108.59 182.5Z" fill="currentColor"/>
<path d="M379.28 410.5H195.28C194.45 408.75 196.23 408.3 196.94 407.5C212.94 389.093 228.977 370.72 245.05 352.38C247.838 349.338 250.194 345.926 252.05 342.24C256.31 333.29 255.88 324.02 254.67 314.49C249.35 272.75 244.31 230.98 239.1 189.22C234.433 151.833 229.727 114.447 224.98 77.06C224.68 74.69 224.87 73.64 227.82 73.65C276.07 73.75 324.32 73.7 372.57 73.75C378.322 73.6136 384.017 74.9128 389.14 77.53C403.2 85.04 409.66 97.05 409.67 112.74C409.67 172.46 409.67 232.177 409.67 291.89C409.67 318.823 409.67 345.75 409.67 372.67C409.67 385.47 404.91 395.91 394.6 403.73C390.01 407.2 384.48 408.42 379.28 410.5ZM293.33 182.5C288 182.5 282.67 182.43 277.33 182.5C270.17 182.63 264.95 187.69 264.89 194.39C264.83 201.09 269.94 206.24 277.14 206.39C279.38 206.44 280.31 207.07 281.03 209.22C286.76 226.38 294.86 242.3 306.31 256.39C308.16 258.67 307.6 259.72 305.61 261.31C297.7 267.64 289.93 274.12 282.09 280.52C278.09 283.83 275.99 287.94 277.25 293.17C279.37 302.04 289.25 305.23 296.84 299.44C305.52 292.8 314.04 285.96 322.09 278.57C324.24 276.57 325.53 276.67 327.65 278.57C335.79 286.06 344.82 292.48 353.51 299.3C356.7 301.8 360.23 303.12 364.31 302.08C366.545 301.615 368.592 300.499 370.194 298.873C371.796 297.246 372.88 295.182 373.31 292.94C374.43 287.89 372.55 283.79 368.56 280.64C360.3 274.13 351.82 267.9 343.8 261.06C341.8 259.34 341.89 258.29 343.42 256.41C355.023 242.308 363.895 226.165 369.58 208.81C370.18 206.98 371.02 206.43 372.94 206.37C380.62 206.1 385.66 201.21 385.62 194.37C385.58 187.53 380.23 182.55 372.48 182.51C364.35 182.46 356.22 182.51 348.09 182.51C344.51 182.51 339.85 183.73 337.65 181.96C335.45 180.19 337.17 175.23 336.92 171.7C336.92 171.3 336.92 170.9 336.92 170.5C336.61 163.66 331.48 158.55 324.92 158.5C321.749 158.5 318.708 159.755 316.459 161.99C314.211 164.225 312.938 167.26 312.92 170.43C312.81 173.49 312.76 176.57 312.92 179.62C313.05 181.82 312.46 182.62 310.12 182.53C304.53 182.38 298.93 182.5 293.33 182.5Z" fill="currentColor"/>
<path d="M140.35 362.64H203.16C201.27 364.75 199.73 366.5 198.16 368.22C187.23 380.22 176.25 392.22 165.42 404.38C163.7 406.31 162.49 406.71 160.18 405.31C148.64 398.31 142.98 387.95 141.75 374.8C141.39 370.81 140.84 366.86 140.35 362.64Z" fill="currentColor"/>
<path d="M96.3201 158.5C99.0901 144.65 101.79 131.1 104.5 117.56C104.867 116.144 105.151 114.709 105.35 113.26C105.53 111.21 106.35 110.44 108.55 110.4C110.98 110.34 111.28 111.56 111.64 113.4C114.4 127.34 117.207 141.277 120.06 155.21C120.56 157.63 120.34 158.67 117.4 158.57C110.48 158.34 103.58 158.5 96.3201 158.5Z" fill="currentColor"/>
<path d="M305.33 206.58H345.19C343.552 210.911 341.645 215.136 339.48 219.23C335.701 226.261 331.321 232.953 326.39 239.23C325.57 240.29 325.05 241.59 323.58 239.65C315.895 229.59 309.745 218.445 305.33 206.58Z" fill="currentColor"/>
</g>
<defs>
<clipPath id="clip0_217_2">
<rect width="410.57" height="410.59" fill="white"/>
</clipPath>
</defs>
</svg>
