<svg id="Layer_1" data-name="Layer 1" xmlns="http://www.w3.org/2000/svg" viewBox="0 0 384.88 384.91"><path d="M106.5,246.39c0-5.12.08-10.25,0-15.37,0-1.6.29-2.22,1.92-1.89a8.34,8.34,0,0,0,1.5,0q188.92,0,377.85-.09c3.11,0,3.61.71,3.61,3.68q-.13,188.93,0,377.86c0,3-.84,3.37-3.52,3.36q-89-.12-178.06-.06c1-1.4,2.67-.8,4-1.3,9.09-3.44,14.48-11.47,14.5-22.3,0-19,0-38,0-57V522.61c5.8,2.84,11,5.63,16.46,8A33.32,33.32,0,0,1,361,545.9c8.66,15.8,28.89,23,45.3,15.63,12.6-5.64,24.63-12.56,36.9-18.94A4.88,4.88,0,0,0,446,537.7a5.89,5.89,0,0,0-3.31-5.1c-2.17-1.09-4.07-.29-6,.73-10.58,5.57-21.13,11.23-31.8,16.63-13.35,6.77-27.82,2.31-34.92-10.86a40.75,40.75,0,0,0-18.62-17.72Q309.75,501,268.27,480.3c-7.61-3.78-10-11.4-6.24-18.95s11.11-9.81,18.91-5.86c.78.39,1.57.77,2.34,1.18q13.39,7,26.79,14.1c2.61,1.38,5.07,1.43,7.22-.7s2.11-4.64.73-7.22c-.35-.66-.66-1.34-1-2Q291.4,412,265.81,363.17a38.38,38.38,0,0,1-2.24-4.72,14.9,14.9,0,0,1,8.22-18.65c6.82-3,12.92-.5,17,7,.29.55.56,1.11.85,1.67q23.1,44,46.2,88c2.09,4,4.89,5,8.16,3.24,3.08-1.69,3.75-4.55,1.83-8.31-2.61-5.1-5.32-10.16-8-15.25a13.61,13.61,0,0,1,11.35-19.91c5.3-.32,9.41,1.35,11.84,6.56,2.53,5.41,5.48,10.63,8.29,15.91,2.12,4,4.82,5.1,8.13,3.44s4-4.59,1.88-8.6c-3-5.87-6.05-11.75-9.23-17.53a8.09,8.09,0,0,1-.68-6.47,13.84,13.84,0,0,1,9.41-9.83c6.42-2.2,11.89,0,15,5.94,2.83,5.41,5.63,10.84,8.52,16.22,2,3.65,4.82,4.66,8,3s3.87-4.52,1.92-8.32c-2.91-5.65-5.73-11.35-8.89-16.86-2.23-3.87-1.71-7.43.36-10.94a14,14,0,0,1,24.54.52q10.26,19.11,20.11,38.42a264.1,264.1,0,0,1,20,52.26c2.22,8.31,4.28,16.61,8.07,24.43,6.07,12.49,2,25.79-9.86,33.19-3.92,2.44-4.88,5.09-3,8.25s4.85,3.62,8.72,1.38a36.34,36.34,0,0,0,14.88-46.48,118.9,118.9,0,0,1-7.28-21.16,278.33,278.33,0,0,0-9.38-29.54c-8.55-23-21-44.08-32.14-65.77-4.89-9.5-13.09-14-23.6-13.47s-18.45,5.72-22.48,15.83c-.7,1.76-1.34,2.2-3.23,1.79-12.83-2.78-24.73,3.27-29.56,15.18-.89,2.2-1.67,2.35-3.77,1.93-9.85-2-18.23.8-25,8.25-.69.76-.94,2-2.47,2.3v-4.18q0-68.79,0-137.6c0-15.5-8.94-24.45-24.38-24.45h-126a27,27,0,0,0-3.37.06,5.45,5.45,0,0,0-4.74,6.45c.55,3.37,2.63,4.74,7.27,4.74h127.1c8.75,0,12.78,4,12.83,12.84,0,3.37-.27,6.78.08,10.12.39,3.61-1.07,4.19-4.33,4.19q-95.43-.15-190.85-.07a14.73,14.73,0,0,0-1.88,0c-1.8.26-2.34-.48-2.29-2.28.12-4.49,0-9,0-13.49.11-6.84,4.45-11.2,11.28-11.31,4.62-.08,9.25,0,13.87,0,3.86,0,6.15-2.11,6.25-5.47s-2.3-5.72-6.33-5.76c-4.87-.05-9.75-.15-14.62,0-9.53.35-16.18,5.1-20.14,13.72C107.64,244.61,107.79,245.92,106.5,246.39Z" transform="translate(-106.45 -229.04)" fill="none"/><path d="M106.5,246.39c1.29-.47,1.14-1.78,1.58-2.74,4-8.62,10.61-13.37,20.14-13.72,4.87-.18,9.75-.08,14.62,0,4,0,6.42,2.28,6.33,5.76s-2.39,5.42-6.25,5.47c-4.62.06-9.25,0-13.87,0-6.83.11-11.17,4.47-11.28,11.31-.07,4.5.07,9,0,13.49,0,1.8.49,2.54,2.29,2.28a14.73,14.73,0,0,1,1.88,0q95.42,0,190.85.07c3.26,0,4.72-.58,4.33-4.19-.35-3.34-.05-6.75-.08-10.12-.05-8.8-4.08-12.84-12.83-12.84H177.06c-4.64,0-6.72-1.37-7.27-4.74a5.45,5.45,0,0,1,4.74-6.45,27,27,0,0,1,3.37-.06h126c15.44,0,24.37,9,24.38,24.45q0,68.8,0,137.6v4.18c1.53-.3,1.78-1.54,2.47-2.3,6.81-7.45,15.19-10.23,25-8.25,2.1.42,2.88.27,3.77-1.93,4.83-11.91,16.73-18,29.56-15.18,1.89.41,2.53,0,3.23-1.79,4-10.11,11.89-15.28,22.48-15.83s18.71,4,23.6,13.47C449.58,386,462,407.09,470.55,430.08a278.33,278.33,0,0,1,9.38,29.54,118.9,118.9,0,0,0,7.28,21.16,36.34,36.34,0,0,1-14.88,46.48c-3.87,2.24-6.85,1.77-8.72-1.38s-.91-5.81,3-8.25c11.83-7.4,15.93-20.7,9.86-33.19-3.79-7.82-5.85-16.12-8.07-24.43a264.1,264.1,0,0,0-20-52.26q-9.89-19.29-20.11-38.42a14,14,0,0,0-24.54-.52c-2.07,3.51-2.59,7.07-.36,10.94,3.16,5.51,6,11.21,8.89,16.86,1.95,3.8,1.25,6.65-1.92,8.32s-6,.66-8-3c-2.89-5.38-5.69-10.81-8.52-16.22-3.11-6-8.58-8.14-15-5.94a13.84,13.84,0,0,0-9.41,9.83,8.09,8.09,0,0,0,.68,6.47c3.18,5.78,6.2,11.66,9.23,17.53,2.08,4,1.4,6.95-1.88,8.6s-6,.55-8.13-3.44c-2.81-5.28-5.76-10.5-8.29-15.91-2.43-5.21-6.54-6.88-11.84-6.56a13.61,13.61,0,0,0-11.35,19.91c2.64,5.09,5.35,10.15,8,15.25,1.92,3.76,1.25,6.62-1.83,8.31-3.27,1.8-6.07.76-8.16-3.24q-23.13-44-46.2-88c-.29-.56-.56-1.12-.85-1.67-4.07-7.51-10.17-10-17-7a14.9,14.9,0,0,0-8.22,18.65,38.38,38.38,0,0,0,2.24,4.72Q291.4,412,317,460.85c.35.66.66,1.34,1,2,1.38,2.58,1.43,5.08-.73,7.22s-4.61,2.08-7.22.7q-13.36-7.09-26.79-14.1c-.77-.41-1.56-.79-2.34-1.18-7.8-3.95-15.14-1.67-18.91,5.86s-1.37,15.17,6.24,18.95q41.51,20.63,83.09,41.08A40.75,40.75,0,0,1,370,539.1c7.1,13.17,21.57,17.63,34.92,10.86,10.67-5.4,21.22-11.06,31.8-16.63,1.94-1,3.84-1.82,6-.73a5.89,5.89,0,0,1,3.31,5.1,4.88,4.88,0,0,1-2.84,4.89c-12.27,6.38-24.3,13.3-36.9,18.94-16.41,7.35-36.64.17-45.3-15.63a33.32,33.32,0,0,0-16.26-15.27c-5.42-2.39-10.66-5.18-16.46-8V533.3c0,19,0,38,0,57,0,10.83-5.41,18.86-14.5,22.3-1.33.5-3-.1-4,1.3h-186c-3.37-1.94-7.17-3-10.15-5.78-3.45-3.23-5.13-7.41-7.1-11.47ZM316.21,374.92l.79-.26V372.5c0-29.75-.05-59.5.08-89.25,0-3.19-.93-3.84-4-3.83q-95.8.13-191.61,0c-3.18,0-3.82.84-3.82,3.9q.13,126.17,0,252.35c0,3.05.62,3.93,3.82,3.92,34.87-.13,69.74-.08,104.62-.08,29.12,0,58.24,0,87.37.06,2.74,0,3.72-.56,3.58-3.47-.25-5.11-.23-10.25,0-15.37.12-2.73-.71-4.12-3.27-5.36-16.6-8-33.57-15.3-49.59-24.47-2.24-1.28-3.4-1-5.29.72C243.74,505.55,225.82,511,205.65,507c-32.83-6.61-53.33-36.77-48.09-69.87,4.68-29.55,33.43-52.48,62.94-50.19,30.38,2.35,52.7,23.27,57,53.48.16,1.11.08,2.19,1.63,2.51,5.86,1.2,10.65,4.76,15.92,7.28,1.28.61,2.43,1.67,4.35,1.61-.31-.65-.49-1.06-.69-1.45q-20.65-39.4-41.23-78.85c-1.23-2.4-2.85-2.28-4.83-2.28q-53.25,0-106.5,0c-9.32,0-14.72-5.33-14.76-14.57q-.06-18.75,0-37.5c0-9.06,5.44-14.43,14.49-14.43H288.78c9.12,0,14.34,5.24,14.38,14.45,0,10,0,20,0,30a7.31,7.31,0,0,0,.43,3.66Q310,362.85,316.21,374.92ZM217.45,550.76c-32.1,0-64.2,0-96.3-.07-2.8,0-3.51.63-3.47,3.45.18,11.86.07,23.73.08,35.6,0,8.94,4,12.89,13.08,12.89H304c9,0,13-4,13-13,0-11.61-.13-23.23.09-34.84.07-3.3-.75-4.12-4.08-4.11C281.15,550.82,249.3,550.76,217.45,550.76ZM168,451.45c.93,16.9,10.27,32.69,29.6,41.16,19.14,8.39,37,5,53-8.5,1.92-1.62,2.2-2.77.93-5.22a24.85,24.85,0,0,1,11.8-34.12c2.77-1.26,3.3-2.58,2.85-5.27-4.09-24.63-27.25-43.27-51.51-41.37C187.9,400.23,168,421.25,168,451.45ZM291.91,332.64c0-5.24-.14-10.11.06-15,.12-3.07-1.15-3.77-4-3.77q-70.61.11-141.23,0c-3.12,0-4.16,1-4.13,4.1q.18,18,0,36c0,3.18,1.19,4.05,4.21,4.05q50.76-.12,101.53,0c2.16,0,3.1-.21,2.75-2.81a22.78,22.78,0,0,1,4.57-16.89C264.14,326.65,277.53,324.44,291.91,332.64Z" transform="translate(-106.45 -229.04)" fill="currentColor"/><path d="M106.5,596.64c2,4.06,3.65,8.24,7.1,11.47,3,2.77,6.78,3.84,10.15,5.78-5.13,0-10.25-.08-15.37.05-1.62,0-2-.31-1.93-1.93C106.58,606.89,106.5,601.77,106.5,596.64Z" transform="translate(-106.45 -229.04)" fill="none"/><path d="M316.21,374.92q-6.29-12.06-12.6-24.11a7.31,7.31,0,0,1-.43-3.66c0-10,0-20,0-30,0-9.21-5.26-14.45-14.38-14.45H145.92c-9,0-14.46,5.37-14.49,14.43q-.08,18.75,0,37.5c0,9.24,5.44,14.57,14.76,14.57q53.25,0,106.5,0c2,0,3.6-.12,4.83,2.28Q278,411,298.74,450.33c.2.39.38.8.69,1.45-1.92.06-3.07-1-4.35-1.61-5.27-2.52-10.06-6.08-15.92-7.28-1.55-.32-1.47-1.4-1.63-2.51-4.33-30.21-26.65-51.13-57-53.48-29.51-2.29-58.26,20.64-62.94,50.19-5.24,33.1,15.26,63.26,48.09,69.87,20.17,4.05,38.09-1.41,53.26-15.35,1.89-1.74,3-2,5.29-.72,16,9.17,33,16.45,49.59,24.47,2.56,1.24,3.39,2.63,3.27,5.36-.22,5.12-.24,10.26,0,15.37.14,2.91-.84,3.48-3.58,3.47-29.13-.1-58.25-.06-87.37-.06-34.88,0-69.75,0-104.62.08-3.2,0-3.82-.87-3.82-3.92q.13-126.18,0-252.35c0-3.06.64-3.91,3.82-3.9q95.81.15,191.61,0c3,0,4,.64,4,3.83C317,313,317,342.75,317,372.5v2.16Z" transform="translate(-106.45 -229.04)" fill="none"/><path d="M217.45,550.76c31.85,0,63.7.06,95.55-.09,3.33,0,4.15.81,4.08,4.11-.22,11.61-.06,23.23-.09,34.84,0,9-4,13-13,13H130.84c-9.07,0-13.07-4-13.08-12.89,0-11.87.1-23.74-.08-35.6,0-2.82.67-3.46,3.47-3.45C153.25,550.8,185.35,550.76,217.45,550.76ZM217,591.68v0c5.62,0,11.24.15,16.85,0,9-.3,14.55-6.11,14.53-15s-5.59-14.82-14.64-15c-11-.21-22-.1-32.95,0-4.26,0-8.18,1.3-10.95,4.76-4.1,5.14-4.76,10.92-2.28,16.89,2.35,5.66,6.9,8.33,13,8.4C206,591.73,211.53,591.68,217,591.68Z" transform="translate(-106.45 -229.04)" fill="none"/><path d="M168,451.45c0-30.2,19.93-51.22,46.69-53.32,24.26-1.9,47.42,16.74,51.51,41.37.45,2.69-.08,4-2.85,5.27a24.85,24.85,0,0,0-11.8,34.12c1.27,2.45,1,3.6-.93,5.22-16,13.46-33.88,16.89-53,8.5C178.24,484.14,168.9,468.35,168,451.45Zm20.5-5.85a5.68,5.68,0,0,0-4.79,3.41c-1.24,2.36-.59,4.41,1.12,6.15,5.43,5.51,10.86,11,16.44,16.41,2.76,2.66,5.55,2.69,8.29,0,13.49-13.35,26.88-26.81,40.29-40.24a5.1,5.1,0,0,0,.86-6.81,5.44,5.44,0,0,0-6.42-2.6c-1.55.37-2.49,1.61-3.54,2.66-10.87,10.85-21.83,21.62-32.51,32.65-2.45,2.53-3.66,2.16-5.72-.14-2.9-3.26-6.14-6.22-9.22-9.32A6.26,6.26,0,0,0,188.47,445.6Z" transform="translate(-106.45 -229.04)" fill="none"/><path d="M291.91,332.64c-14.38-8.2-27.77-6-36.24,5.65a22.78,22.78,0,0,0-4.57,16.89c.35,2.6-.59,2.81-2.75,2.81q-50.78-.09-101.53,0c-3,0-4.24-.87-4.21-4.05q.21-18,0-36c0-3.1,1-4.1,4.13-4.1q70.62.12,141.23,0c2.84,0,4.11.7,4,3.77C291.77,322.53,291.91,327.4,291.91,332.64Z" transform="translate(-106.45 -229.04)" fill="none"/><path d="M217,591.68c-5.49,0-11,.05-16.47,0-6.07-.07-10.62-2.74-13-8.4-2.48-6-1.82-11.75,2.28-16.89,2.77-3.46,6.69-4.73,10.95-4.76,11-.08,22-.19,32.95,0,9.05.17,14.63,6.09,14.64,15s-5.48,14.73-14.53,15c-5.61.19-11.23,0-16.85,0Zm.07-11.21c5,0,10,0,15,0,2.82,0,5.6-.25,5.52-3.9-.06-3.31-2.62-3.77-5.35-3.76q-15,0-30,0c-2.75,0-5.16.51-5.12,3.95,0,3.25,2.36,3.69,5,3.69C207.1,580.45,212.1,580.46,217.09,580.47Z" transform="translate(-106.45 -229.04)" fill="currentColor"/><path d="M188.47,445.6a6.26,6.26,0,0,1,4.8,2.14c3.08,3.1,6.32,6.06,9.22,9.32,2.06,2.3,3.27,2.67,5.72.14,10.68-11,21.64-21.8,32.51-32.65,1.05-1.05,2-2.29,3.54-2.66a5.44,5.44,0,0,1,6.42,2.6,5.1,5.1,0,0,1-.86,6.81c-13.41,13.43-26.8,26.89-40.29,40.24-2.74,2.72-5.53,2.69-8.29,0-5.58-5.37-11-10.9-16.44-16.41-1.71-1.74-2.36-3.79-1.12-6.15A5.68,5.68,0,0,1,188.47,445.6Z" transform="translate(-106.45 -229.04)" fill="currentColor"/><path d="M217.09,580.46c-5,0-10,0-15,0-2.59,0-4.91-.44-5-3.69,0-3.44,2.37-3.95,5.12-3.95q15,0,30,0c2.73,0,5.29.45,5.35,3.76.08,3.65-2.7,3.92-5.52,3.9C227.08,580.44,222.09,580.47,217.09,580.46Z" transform="translate(-106.45 -229.04)" fill="none"/></svg>