<svg id="Layer_1" data-name="Layer 1" xmlns="http://www.w3.org/2000/svg" viewBox="0 0 384.91 384.88"><path d="M298.87,613.89q-94.67,0-189.33.07c-2.49,0-3.12-.39-3.12-3q.14-189.33,0-378.66c0-2.86.77-3.19,3.32-3.19q189.15.1,378.29,0c2.6,0,3.3.4,3.3,3.21q-.13,189.13,0,378.28c0,2.94-.8,3.39-3.51,3.38Q393.35,613.83,298.87,613.89Zm-.37-332.07v-.24q-51,0-102,0a54.12,54.12,0,0,0-51.9,37.95c-2.62,8.17-2.18,16.47-2.17,24.84q.17,76.88.05,153.74c0,2.37-.15,4.74-.21,7.12-.51,22.86,9.25,39.89,29.22,50.94,10.06,5.57,21,6,32.32,5.92q97.86-.27,195.73.15c32.13.13,55.91-25.7,55.36-57.77-.93-54.85-.28-109.73-.29-164.6,0-.37.05-.75.07-1.12a54,54,0,0,0-38.69-55c-7.83-2.35-15.76-2-23.76-2C361,281.9,329.74,281.82,298.5,281.82Z" transform="translate(-106.42 -229.08)" fill="none"/><path d="M298.5,281.82c31.24,0,62.49.08,93.74-.05,8,0,15.93-.38,23.76,2a54,54,0,0,1,38.69,55c0,.37-.07.75-.07,1.12,0,54.87-.64,109.75.29,164.6.55,32.07-23.23,57.9-55.36,57.77q-97.86-.37-195.73-.15c-11.29,0-22.26-.35-32.32-5.92-20-11-29.73-28.08-29.22-50.94.06-2.38.21-4.75.21-7.12q0-76.87-.05-153.74c0-8.37-.45-16.67,2.17-24.84a54.12,54.12,0,0,1,51.9-37.95q51,0,102,0Zm-36,140.08c0,37.36.05,74.72-.08,112.08,0,3.32.8,4.06,4.07,4,41.86-.12,83.72-.06,125.58-.1,3.74,0,7.5-.21,11.22-.59,14.77-1.48,23.63-9.54,26.26-23.87a73,73,0,0,0,1-13.06q0-78.53,0-157.06a83.92,83.92,0,0,0-.79-12c-1.92-13.64-9.66-21.79-23.12-24.4a74.88,74.88,0,0,0-14.17-1.16q-63,0-125.95-.08c-3.31,0-4.07.77-4.06,4.06C262.55,347.17,262.5,384.54,262.5,421.9Zm-24,.15V345.58q0-18.36,0-36.73c0-1.33.69-3.11-1.92-3.05-14.49.33-29-.86-43.45.75-11.6,1.28-20.55,6.7-24.33,18.53-1.89,5.89-2.29,12-2.29,18.13q0,71.78,0,143.55c0,6.37-.13,12.75.1,19.12.72,20.09,10,30,29.93,31.65,12.71,1.06,25.48.11,38.21.5,3.2.1,3.84-.86,3.83-3.91C238.46,496.76,238.5,459.4,238.5,422.05Z" transform="translate(-106.42 -229.08)" fill="currentColor"/><path d="M262.5,421.9c0-37.36.05-74.73-.08-112.09,0-3.29.75-4.07,4.06-4.06q63,.18,126,.08A74.88,74.88,0,0,1,406.6,307c13.46,2.61,21.2,10.76,23.12,24.4a83.92,83.92,0,0,1,.79,12q0,78.52,0,157.06a73,73,0,0,1-1,13.06c-2.63,14.33-11.49,22.39-26.26,23.87-3.72.38-7.48.58-11.22.59-41.86,0-83.72,0-125.58.1-3.27,0-4.09-.73-4.07-4C262.55,496.62,262.5,459.26,262.5,421.9Z" transform="translate(-106.42 -229.08)" fill="none"/><path d="M238.5,422.05c0,37.35,0,74.71.07,112.07,0,3-.63,4-3.83,3.91-12.73-.39-25.5.56-38.21-.5-19.94-1.67-29.21-11.56-29.93-31.65-.23-6.37-.1-12.75-.1-19.12q0-71.77,0-143.55c0-6.15.4-12.24,2.29-18.13,3.78-11.83,12.73-17.25,24.33-18.53,14.43-1.61,29-.42,43.45-.75,2.61-.06,1.92,1.72,1.92,3.05q0,18.36,0,36.73Z" transform="translate(-106.42 -229.08)" fill="none"/></svg>