<svg width="30" height="30" viewBox="0 0 30 30" fill="none" xmlns="http://www.w3.org/2000/svg">
<g clip-path="url(#clip0_110_48)">
<path d="M-4.83412e-05 14.681C0.0910867 14.681 0.0828058 14.5567 0.107661 14.4905C0.207544 14.2286 0.382874 14.0022 0.611466 13.8399C0.840059 13.6777 1.11163 13.5869 1.39183 13.5791C2.22033 13.5791 3.04883 13.5791 3.87733 13.5791C4.244 13.6068 4.58667 13.772 4.8367 14.0417C5.08673 14.3113 5.22566 14.6654 5.22566 15.0331C5.22566 15.4009 5.08673 15.755 4.8367 16.0246C4.58667 16.2942 4.244 16.4595 3.87733 16.4872C3.04883 16.4872 2.22033 16.4872 1.39183 16.4872C1.10763 16.4831 0.831129 16.3942 0.597864 16.2318C0.364598 16.0694 0.185233 15.8409 0.0828068 15.5758C0.0828068 15.5095 0.0828027 15.4184 -0.0249023 15.3853L-4.83412e-05 14.681Z" fill="currentColor"/>
<path d="M14.6149 30C14.6149 29.9089 14.4906 29.9171 14.4243 29.8923C14.1585 29.7908 13.9294 29.6117 13.7669 29.3782C13.6043 29.1447 13.5159 28.8677 13.5129 28.5833C13.5129 27.7548 13.5129 26.9263 13.5129 26.0978C13.5406 25.7311 13.7059 25.3884 13.9755 25.1384C14.2451 24.8884 14.5992 24.7494 14.967 24.7494C15.3347 24.7494 15.6888 24.8884 15.9584 25.1384C16.2281 25.3884 16.3933 25.7311 16.421 26.0978C16.421 26.9263 16.421 27.7548 16.421 28.5833C16.4152 28.9065 16.2958 29.2173 16.0837 29.4612C15.8716 29.7051 15.5804 29.8666 15.2611 29.9171C15.2611 29.9171 15.2197 29.9586 15.2031 29.9751L14.6149 30Z" fill="currentColor"/>
<path d="M14.9627 22.5269C13.4897 22.5187 12.0522 22.0745 10.8314 21.2502C9.61069 20.4259 8.66141 19.2585 8.10339 17.8953C7.54537 16.5321 7.4036 15.0342 7.69597 13.5905C7.98834 12.1468 8.70177 10.8221 9.74621 9.7834C10.7907 8.74473 12.1193 8.03867 13.5646 7.7543C15.0099 7.46993 16.507 7.62 17.8671 8.18557C19.2272 8.75113 20.3893 9.70685 21.2068 10.9321C22.0243 12.1574 22.4606 13.5974 22.4606 15.0704C22.4475 17.0511 21.652 18.9464 20.2475 20.3431C18.8431 21.7398 16.9434 22.5248 14.9627 22.5269Z" fill="currentColor"/>
<path d="M25.9734 5.60067C25.9508 5.96535 25.7874 6.30698 25.5177 6.55344C24.9874 7.08368 24.4655 7.6222 23.927 8.14415C23.7915 8.28015 23.6306 8.38816 23.4534 8.46197C23.2762 8.53578 23.0862 8.57395 22.8943 8.57433C22.7023 8.57471 22.5122 8.53729 22.3347 8.46419C22.1572 8.39109 21.9959 8.28375 21.8599 8.1483C21.7239 8.01284 21.6159 7.85192 21.5421 7.67473C21.4682 7.49754 21.4301 7.30755 21.4297 7.1156C21.4293 6.92366 21.4667 6.73351 21.5398 6.55602C21.6129 6.37854 21.7203 6.21719 21.8557 6.08119C22.3777 5.53438 22.9162 4.99586 23.463 4.4739C23.6695 4.25161 23.9411 4.10057 24.2389 4.04251C24.5367 3.98444 24.8452 4.02236 25.12 4.1508C25.3924 4.27759 25.6198 4.48411 25.7722 4.74302C25.9246 5.00193 25.9947 5.30101 25.9734 5.60067Z" fill="currentColor"/>
<path d="M25.9735 24.7224C25.9588 24.9753 25.8733 25.2188 25.7268 25.4254C25.5803 25.632 25.3787 25.7932 25.145 25.8906C24.9077 26.0217 24.6359 26.0769 24.3663 26.0488C24.0967 26.0206 23.8422 25.9105 23.6371 25.7332C22.9448 25.1375 22.2994 24.4894 21.7067 23.7945C21.4995 23.5136 21.4006 23.1674 21.4281 22.8194C21.4557 22.4714 21.6078 22.1451 21.8566 21.9003C22.1055 21.6555 22.4343 21.5087 22.7827 21.4868C23.131 21.4649 23.4756 21.5695 23.7531 21.7813C24.4278 22.3814 25.0668 23.0205 25.6669 23.6951C25.899 23.9846 26.0089 24.3531 25.9735 24.7224Z" fill="currentColor"/>
<path d="M3.96852 5.46811C3.96136 5.1945 4.03648 4.92501 4.18419 4.69458C4.33191 4.46415 4.54541 4.28339 4.79702 4.17566C5.0378 4.04301 5.31385 3.98848 5.58697 4.01965C5.86009 4.05083 6.11677 4.16615 6.32146 4.34963C6.9891 4.93443 7.61735 5.56269 8.20215 6.23032C8.44169 6.50614 8.56758 6.86261 8.55438 7.22769C8.54117 7.59277 8.38987 7.93923 8.13102 8.19702C7.87218 8.45482 7.5251 8.60474 7.15997 8.61646C6.79484 8.62817 6.43889 8.50082 6.16404 8.26016C5.51013 7.67803 4.88786 7.06129 4.29992 6.41259C4.06869 6.15409 3.94951 5.81441 3.96852 5.46811Z" fill="currentColor"/>
<path d="M3.96843 24.5816C3.96505 24.3815 4.00387 24.1828 4.08238 23.9987C4.1609 23.8145 4.27733 23.649 4.42409 23.5129C4.94605 22.9826 5.46801 22.4441 6.00653 21.9221C6.13927 21.7742 6.3007 21.6548 6.48101 21.5712C6.66132 21.4875 6.85676 21.4414 7.05543 21.4357C7.25411 21.4299 7.45187 21.4646 7.63673 21.5376C7.82159 21.6106 7.98968 21.7205 8.13078 21.8604C8.27188 22.0004 8.38305 22.1676 8.45755 22.3519C8.53204 22.5361 8.5683 22.7336 8.56412 22.9323C8.55994 23.1311 8.5154 23.3269 8.43322 23.5078C8.35104 23.6888 8.23294 23.8512 8.08608 23.9851C7.55584 24.5319 7.0173 25.0621 6.47049 25.5924C6.26682 25.819 5.99443 25.9725 5.69511 26.0294C5.39579 26.0862 5.08607 26.0433 4.81349 25.9072C4.55334 25.8001 4.33258 25.6153 4.18134 25.3781C4.0301 25.1408 3.95576 24.8627 3.96843 24.5816Z" fill="currentColor"/>
<path d="M16.4292 2.70092C16.4292 3.08203 16.4292 3.46312 16.4292 3.84423C16.4292 4.23096 16.2756 4.60185 16.0022 4.87531C15.7287 5.14877 15.3578 5.3024 14.9711 5.3024C14.5843 5.3024 14.2135 5.14877 13.94 4.87531C13.6665 4.60185 13.5129 4.23096 13.5129 3.84423C13.5129 3.08201 13.5129 2.31151 13.5129 1.541C13.5096 1.34852 13.5447 1.15732 13.6161 0.978539C13.6875 0.799753 13.7937 0.636965 13.9287 0.499688C14.0636 0.362411 14.2246 0.253375 14.4021 0.178963C14.5797 0.10455 14.7703 0.0662445 14.9628 0.0662728C15.3525 0.068462 15.7255 0.224801 16.0002 0.501129C16.275 0.777458 16.4293 1.15131 16.4292 1.541C16.4375 1.92211 16.4292 2.31153 16.4292 2.70092Z" fill="currentColor"/>
<path d="M27.2909 13.5708C27.672 13.5708 28.0531 13.5708 28.4342 13.5708C28.6355 13.5557 28.8378 13.5822 29.0283 13.6488C29.2189 13.7155 29.3936 13.8207 29.5416 13.958C29.6896 14.0952 29.8077 14.2616 29.8884 14.4466C29.9691 14.6316 30.0108 14.8313 30.0108 15.0331C30.0108 15.235 29.9691 15.4347 29.8884 15.6197C29.8077 15.8047 29.6896 15.971 29.5416 16.1083C29.3936 16.2456 29.2189 16.3508 29.0283 16.4174C28.8378 16.484 28.6355 16.5106 28.4342 16.4954C27.6637 16.4954 26.8932 16.4954 26.1227 16.4954C25.9302 16.4976 25.7392 16.4615 25.5609 16.3891C25.3825 16.3167 25.2203 16.2095 25.0838 16.0738C24.9473 15.9381 24.8392 15.7765 24.7658 15.5985C24.6924 15.4206 24.6552 15.2298 24.6563 15.0373C24.6563 14.8451 24.6943 14.6548 24.7681 14.4773C24.8419 14.2999 24.95 14.1388 25.0863 14.0033C25.2226 13.8678 25.3843 13.7605 25.5621 13.6877C25.74 13.6149 25.9305 13.578 26.1227 13.5791C26.5287 13.5625 26.9181 13.5708 27.2909 13.5708Z" fill="currentColor"/>
</g>
<defs>
<clipPath id="clip0_110_48">
<rect width="30" height="30" fill="white"/>
</clipPath>
</defs>
</svg>
