<svg width="30" height="30" viewBox="0 0 30 30" fill="none" xmlns="http://www.w3.org/2000/svg">
<g clip-path="url(#clip0_110_32)">
<path d="M6.96135 29.9949C6.73628 29.8772 6.48197 29.8794 6.24155 29.8283C4.23195 29.4015 2.68785 27.7171 2.52416 25.6629C2.32758 23.1981 2.6155 20.7814 3.54284 18.4781C4.09311 17.1108 4.91741 15.9306 6.26566 15.2028C7.12431 14.7388 8.04507 14.5378 9.01114 14.521C9.34218 14.5159 9.63375 14.6606 9.90852 14.8323C10.347 15.1063 10.773 15.3928 11.2122 15.6624C13.7056 17.1912 16.1982 17.1885 18.6901 15.6544C19.0372 15.4396 19.3902 15.2306 19.7168 14.9865C20.3131 14.5414 20.9679 14.4691 21.6804 14.5721C23.6439 14.8564 25.0265 15.9314 25.9539 17.6494C26.7723 19.1643 27.1231 20.8099 27.3109 22.5002C27.4072 23.3814 27.4441 24.2681 27.4212 25.1543C27.3642 27.7208 25.5373 29.6887 22.9797 29.9372C22.9336 29.9415 22.8803 29.9291 22.8657 29.9949H6.96135Z" fill="currentColor"/>
<path d="M21.9704 7.26232C21.9923 11.2347 18.7339 14.4969 14.7519 14.483C12.8398 14.4855 11.005 13.7283 9.65111 12.378C8.29725 11.0277 7.53524 9.19491 7.53272 7.28278C7.5302 5.37065 8.28738 3.53583 9.63768 2.18197C10.988 0.828104 12.8208 0.0660962 14.7329 0.0635766C18.72 0.040923 21.9492 3.25262 21.9704 7.26232Z" fill="currentColor"/>
</g>
<defs>
<clipPath id="clip0_110_32">
<rect width="30" height="30" fill="white"/>
</clipPath>
</defs>
</svg>
